<svg xmlns="http://www.w3.org/2000/svg" viewBox="0 0 64 64" role="img" aria-label="PD Dent">
  <defs>
    <linearGradient id="tooth" x1="0" y1="0" x2="1" y2="1">
      <stop offset="0%" stop-color="#2aa4a1" />
      <stop offset="100%" stop-color="#f6b26b" />
    </linearGradient>
  </defs>
  <rect width="64" height="64" rx="18" fill="#ecfbf8" />
  <path d="M32 8c10 0 18 8 18 18 0 6-2 11-4 16-2 4-3 10-4 16-1 4-6 6-10 2-2-2-2-6-2-10h-2c0 4 0 8-2 10-4 4-9 2-10-2-1-6-2-12-4-16-2-5-4-10-4-16 0-10 8-18 18-18z" fill="url(#tooth)" />
  <circle cx="24" cy="26" r="3" fill="#ffffff" opacity="0.6" />
</svg>
